<svg width="169" height="92" viewBox="0 0 169 92" fill="none" xmlns="http://www.w3.org/2000/svg">
<path d="M139.5 0C154 0 165.333 8.66681 169 12.5L120.5 60.5C114.509 66.7508 107 74.5002 98 82C91 88 79.6444 91.2395 71.5 91C54.5 90.5 47 84 37 74.5C26.5588 64.0588 15.6085 52.1073 8.61768 45.117C14.17 50.6594 26.1173 61.8599 42 61.499C65 60.9762 78 44 87 35C91.5783 30.4217 107.5 13 114.5 8C124.606 0.781171 135.55 0 139.5 0Z" fill="#D755E2"/>
<path d="M29.5 25C15 25 3.66667 32.6667 0 36.5L23.5 60.5C29.4906 66.751 37 75 46 82.5C52.5 87.9167 63.3556 91.2395 71.5 91C88.5 90.5 96 85 106.5 74.5C117.943 63.5542 128.906 52.087 135.896 45.1034C130.338 50.6471 117.396 62.3613 101.5 62C78.5 61.4773 72.5 50.5 57.5 36C49.3497 28.1214 38.2635 25 29.5 25Z" fill="#3DB8FD" style="mix-blend-mode:multiply"/>
</svg>
