<svg height="38" viewBox="0 0 458 150" fill="none" xmlns="http://www.w3.org/2000/svg">
  <path
    d="M139.5 29C154 29 165.333 37.6668 169 41.5L120.5 89.5C114.509 95.7508 107 103.5 98 111C91 117 79.6444 120.24 71.5 120C54.5 119.5 47 113 37 103.5C26.5588 93.0588 15.6085 81.1073 8.61768 74.117C14.17 79.6594 26.1173 90.8599 42 90.499C65 89.9762 78 73 87 64C91.5783 59.4217 107.5 42 114.5 37C124.606 29.7812 135.55 29 139.5 29Z"
    fill="#D755E2"
  />
  <path
    d="M29.5 54C15 54 3.66667 61.6667 0 65.5L23.5 89.5C29.4906 95.751 37 104 46 111.5C52.5 116.917 63.3556 120.24 71.5 120C88.5 119.5 96 114 106.5 103.5C117.943 92.5542 128.906 81.087 135.896 74.1034C130.338 79.6471 117.396 91.3613 101.5 91C78.5 90.4773 72.5 79.5 57.5 65C49.3497 57.1214 38.2635 54 29.5 54Z"
    fill="#3DB8FD"
    style="mix-blend-mode: multiply"
  />
  <path
    d="M230 97.1L244 54.6H258.9L238.4 110H221.4L201 54.6H216L230 97.1ZM318.263 81.1C318.263 83.1 318.13 84.9 317.863 86.5H277.363C277.697 90.5 279.097 93.6333 281.563 95.9C284.03 98.1667 287.063 99.3 290.663 99.3C295.863 99.3 299.563 97.0667 301.763 92.6H316.863C315.263 97.9333 312.197 102.333 307.663 105.8C303.13 109.2 297.563 110.9 290.963 110.9C285.63 110.9 280.83 109.733 276.563 107.4C272.363 105 269.063 101.633 266.663 97.3C264.33 92.9667 263.163 87.9667 263.163 82.3C263.163 76.5667 264.33 71.5333 266.663 67.2C268.997 62.8667 272.263 59.5333 276.463 57.2C280.663 54.8667 285.497 53.7 290.963 53.7C296.23 53.7 300.93 54.8333 305.063 57.1C309.263 59.3667 312.497 62.6 314.763 66.8C317.097 70.9333 318.263 75.7 318.263 81.1ZM303.763 77.1C303.697 73.5 302.397 70.6333 299.863 68.5C297.33 66.3 294.23 65.2 290.563 65.2C287.097 65.2 284.163 66.2667 281.763 68.4C279.43 70.4667 277.997 73.3667 277.463 77.1H303.763ZM324.882 82.1C324.882 76.5 325.982 71.5333 328.182 67.2C330.449 62.8667 333.515 59.5333 337.382 57.2C341.249 54.8667 345.549 53.7 350.282 53.7C353.882 53.7 357.315 54.5 360.582 56.1C363.849 57.6333 366.449 59.7 368.382 62.3V36H382.582V110H368.382V101.8C366.649 104.533 364.215 106.733 361.082 108.4C357.949 110.067 354.315 110.9 350.182 110.9C345.515 110.9 341.249 109.7 337.382 107.3C333.515 104.9 330.449 101.533 328.182 97.2C325.982 92.8 324.882 87.7667 324.882 82.1ZM368.482 82.3C368.482 78.9 367.815 76 366.482 73.6C365.149 71.1333 363.349 69.2667 361.082 68C358.815 66.6667 356.382 66 353.782 66C351.182 66 348.782 66.6333 346.582 67.9C344.382 69.1667 342.582 71.0333 341.182 73.5C339.849 75.9 339.182 78.7667 339.182 82.1C339.182 85.4333 339.849 88.3667 341.182 90.9C342.582 93.3667 344.382 95.2667 346.582 96.6C348.849 97.9333 351.249 98.6 353.782 98.6C356.382 98.6 358.815 97.9667 361.082 96.7C363.349 95.3667 365.149 93.5 366.482 91.1C367.815 88.6333 368.482 85.7 368.482 82.3ZM392.655 82.1C392.655 76.5 393.755 71.5333 395.955 67.2C398.222 62.8667 401.255 59.5333 405.055 57.2C408.922 54.8667 413.222 53.7 417.955 53.7C422.089 53.7 425.689 54.5333 428.755 56.2C431.889 57.8667 434.389 59.9667 436.255 62.5V54.6H450.355V110H436.255V101.9C434.455 104.5 431.955 106.667 428.755 108.4C425.622 110.067 421.989 110.9 417.855 110.9C413.189 110.9 408.922 109.7 405.055 107.3C401.255 104.9 398.222 101.533 395.955 97.2C393.755 92.8 392.655 87.7667 392.655 82.1ZM436.255 82.3C436.255 78.9 435.589 76 434.255 73.6C432.922 71.1333 431.122 69.2667 428.855 68C426.589 66.6667 424.155 66 421.555 66C418.955 66 416.555 66.6333 414.355 67.9C412.155 69.1667 410.355 71.0333 408.955 73.5C407.622 75.9 406.955 78.7667 406.955 82.1C406.955 85.4333 407.622 88.3667 408.955 90.9C410.355 93.3667 412.155 95.2667 414.355 96.6C416.622 97.9333 419.022 98.6 421.555 98.6C424.155 98.6 426.589 97.9667 428.855 96.7C431.122 95.3667 432.922 93.5 434.255 91.1C435.589 88.6333 436.255 85.7 436.255 82.3Z"
    fill="#17174F"
  />
</svg>